# xmcd
#
# Track frame offsets: 
#        150
#        24210
#        47193
#        63336
#        82627
#        104551
#        127945
#        148308
#        172395
#        194105
#        211761
#        246826
#        269559
#        293501
#        316425
#
# Disc length: 4496 seconds
#
# Revision: 0
# Processed by: cddbd v1.5.1PL0 Copyright (c) Steve Scherf et al.
# Submitted via: ExactAudioCopy v0.95a5
#
DISCID=e2118e0f
DTITLE=韩红 - 红歌汇
DYEAR=2005
DGENRE=Country
TTITLE0=天空
TTITLE1=穿行
TTITLE2=醒了
TTITLE3=来吧
TTITLE4=雪
TTITLE5=天亮了
TTITLE6=绒花
TTITLE7=歌唱2002
TTITLE8=茶马古道
TTITLE9=天涯
TTITLE10=那片海
TTITLE11=思念谁
TTITLE12=香格里拉
TTITLE13=家乡
TTITLE14=青藏高原
EXTD=
EXTT0=
EXTT1=
EXTT2=
EXTT3=
EXTT4=
EXTT5=
EXTT6=
EXTT7=
EXTT8=
EXTT9=
EXTT10=
EXTT11=
EXTT12=
EXTT13=
EXTT14=
PLAYORDER=
